<svg width="24" height="24" viewBox="0 0 24 24" fill="none" xmlns="http://www.w3.org/2000/svg">
<path d="M6 22C5.45 22 4.97917 21.8042 4.5875 21.4125C4.19583 21.0208 4 20.55 4 20V4C4 3.45 4.19583 2.97917 4.5875 2.5875C4.97917 2.19583 5.45 2 6 2H14L20 8V12.35C19.6833 12.2333 19.3583 12.1458 19.025 12.0875C18.6917 12.0292 18.35 12 18 12V9H13V4H6V20H12.35C12.4833 20.3833 12.65 20.7417 12.85 21.075C13.05 21.4083 13.2833 21.7167 13.55 22H6ZM15.9 21.5L14.5 20.1L16.6 18L14.5 15.9L15.9 14.5L18 16.6L20.1 14.5L21.5 15.9L19.425 18L21.5 20.1L20.1 21.5L18 19.425L15.9 21.5Z" fill="white"/>
</svg>
