<svg width="196" height="59" viewBox="0 0 196 59" fill="none" xmlns="http://www.w3.org/2000/svg">
<path d="M0 8C0 3.58172 3.58172 0 8 0H188C192.418 0 196 3.58172 196 8V51C196 55.4183 192.418 59 188 59H8C3.58172 59 0 55.4183 0 51V8Z" fill="#292929"/>
<mask id="mask0_1_296" style="mask-type:alpha" maskUnits="userSpaceOnUse" x="33" y="14" width="28" height="31">
<path d="M59.8044 27.7005C61.2319 28.486 61.2319 30.5141 59.8044 31.2995L36.9758 43.8616C35.5856 44.6266 33.875 43.6339 33.875 42.062L33.875 16.938C33.875 15.3661 35.5856 14.3734 36.9758 15.1384L59.8044 27.7005Z" fill="#C4C4C4"/>
</mask>
<g mask="url(#mask0_1_296)">
<path d="M34.5891 43.6148L48.8288 29.295L34.8236 15.211C34.2649 15.5692 33.875 16.1876 33.875 16.938V42.062C33.875 42.7022 34.1588 43.2464 34.5891 43.6148Z" fill="url(#paint0_linear_1_296)"/>
<path d="M59.8044 27.7005C61.2318 28.486 61.2318 30.5141 59.8044 31.2996L54.0452 34.4687L48.8289 29.2949L53.7792 24.3849L59.8044 27.7005Z" fill="url(#paint1_linear_1_296)"/>
<path d="M54.0452 34.4687L48.8288 29.2949L34.589 43.6147C35.2152 44.1509 36.1518 44.315 36.9758 43.8616L54.0452 34.4687Z" fill="url(#paint2_linear_1_296)"/>
<path d="M34.8236 15.211L48.8288 29.2949L53.7792 24.3849L36.9758 15.1384C36.2493 14.7386 35.4353 14.8189 34.8236 15.211Z" fill="url(#paint3_linear_1_296)"/>
</g>
<path d="M72.248 20H69.5549V11.2727H72.3674C73.214 11.2727 73.9384 11.4474 74.5407 11.7969C75.1429 12.1435 75.6046 12.642 75.9256 13.2926C76.2466 13.9403 76.4071 14.7159 76.4071 15.6193C76.4071 16.5284 76.2452 17.3111 75.9213 17.9673C75.5975 18.6207 75.1259 19.1236 74.5066 19.4759C73.8873 19.8253 73.1344 20 72.248 20ZM70.6117 19.0625H72.1799C72.9015 19.0625 73.4995 18.9233 73.9739 18.6449C74.4483 18.3665 74.802 17.9702 75.035 17.456C75.2679 16.9418 75.3844 16.3295 75.3844 15.6193C75.3844 14.9148 75.2694 14.3082 75.0392 13.7997C74.8091 13.2884 74.4654 12.8963 74.008 12.6236C73.5506 12.348 72.981 12.2102 72.2992 12.2102H70.6117V19.0625ZM79.2367 11.2727V20H78.1799V11.2727H79.2367ZM86.1284 13.4545C86.0772 13.0227 85.8699 12.6875 85.5062 12.4489C85.1426 12.2102 84.6966 12.0909 84.1681 12.0909C83.7818 12.0909 83.4437 12.1534 83.1539 12.2784C82.867 12.4034 82.6426 12.5753 82.4806 12.794C82.3216 13.0128 82.242 13.2614 82.242 13.5398C82.242 13.7727 82.2974 13.973 82.4082 14.1406C82.5218 14.3054 82.6667 14.4432 82.8429 14.554C83.019 14.6619 83.2037 14.7514 83.3968 14.8224C83.59 14.8906 83.7676 14.946 83.9295 14.9886L84.8159 15.2273C85.0431 15.2869 85.296 15.3693 85.5744 15.4744C85.8556 15.5795 86.1241 15.723 86.3798 15.9048C86.6383 16.0838 86.8514 16.3139 87.019 16.5952C87.1866 16.8764 87.2704 17.2216 87.2704 17.6307C87.2704 18.1023 87.1468 18.5284 86.8997 18.9091C86.6554 19.2898 86.2974 19.5923 85.8258 19.8168C85.3571 20.0412 84.7875 20.1534 84.117 20.1534C83.492 20.1534 82.9508 20.0526 82.4934 19.8509C82.0389 19.6491 81.6809 19.3679 81.4196 19.0071C81.161 18.6463 81.0147 18.2273 80.9806 17.75H82.0716C82.1 18.0795 82.2108 18.3523 82.4039 18.5682C82.6 18.7812 82.8471 18.9403 83.1454 19.0455C83.4466 19.1477 83.7704 19.1989 84.117 19.1989C84.5204 19.1989 84.8826 19.1335 85.2037 19.0028C85.5247 18.8693 85.7789 18.6847 85.9664 18.4489C86.1539 18.2102 86.2477 17.9318 86.2477 17.6136C86.2477 17.3239 86.1667 17.0881 86.0048 16.9062C85.8429 16.7244 85.6298 16.5767 85.3656 16.4631C85.1014 16.3494 84.8159 16.25 84.5091 16.1648L83.4352 15.858C82.7534 15.6619 82.2136 15.3821 81.8159 15.0185C81.4181 14.6548 81.2193 14.179 81.2193 13.5909C81.2193 13.1023 81.3514 12.6761 81.6156 12.3125C81.8826 11.946 82.2406 11.6619 82.6895 11.4602C83.1412 11.2557 83.6454 11.1534 84.2022 11.1534C84.7647 11.1534 85.2647 11.2543 85.7022 11.456C86.1397 11.6548 86.4863 11.9276 86.742 12.2741C87.0005 12.6207 87.1369 13.0142 87.1511 13.4545H86.1284ZM89.008 20V11.2727H91.9569C92.6415 11.2727 93.2012 11.3963 93.6358 11.6435C94.0733 11.8878 94.3972 12.2188 94.6074 12.6364C94.8176 13.054 94.9228 13.5199 94.9228 14.0341C94.9228 14.5483 94.8176 15.0156 94.6074 15.4361C94.4 15.8565 94.079 16.1918 93.6444 16.4418C93.2097 16.6889 92.6529 16.8125 91.9739 16.8125H89.8603V15.875H91.9398C92.4086 15.875 92.785 15.794 93.0691 15.6321C93.3532 15.4702 93.5591 15.2514 93.687 14.9759C93.8176 14.6974 93.883 14.3835 93.883 14.0341C93.883 13.6847 93.8176 13.3722 93.687 13.0966C93.5591 12.821 93.3517 12.6051 93.0648 12.4489C92.7779 12.2898 92.3972 12.2102 91.9228 12.2102H90.0648V20H89.008ZM103.989 15.6364C103.989 16.5568 103.823 17.3523 103.49 18.0227C103.158 18.6932 102.702 19.2102 102.122 19.5739C101.543 19.9375 100.881 20.1193 100.137 20.1193C99.3922 20.1193 98.7303 19.9375 98.1507 19.5739C97.5712 19.2102 97.1152 18.6932 96.7828 18.0227C96.4505 17.3523 96.2843 16.5568 96.2843 15.6364C96.2843 14.7159 96.4505 13.9205 96.7828 13.25C97.1152 12.5795 97.5712 12.0625 98.1507 11.6989C98.7303 11.3352 99.3922 11.1534 100.137 11.1534C100.881 11.1534 101.543 11.3352 102.122 11.6989C102.702 12.0625 103.158 12.5795 103.49 13.25C103.823 13.9205 103.989 14.7159 103.989 15.6364ZM102.966 15.6364C102.966 14.8807 102.84 14.2429 102.587 13.723C102.337 13.2031 101.997 12.8097 101.568 12.5426C101.142 12.2756 100.665 12.142 100.137 12.142C99.6081 12.142 99.1294 12.2756 98.7005 12.5426C98.2743 12.8097 97.9348 13.2031 97.682 13.723C97.432 14.2429 97.307 14.8807 97.307 15.6364C97.307 16.392 97.432 17.0298 97.682 17.5497C97.9348 18.0696 98.2743 18.4631 98.7005 18.7301C99.1294 18.9972 99.6081 19.1307 100.137 19.1307C100.665 19.1307 101.142 18.9972 101.568 18.7301C101.997 18.4631 102.337 18.0696 102.587 17.5497C102.84 17.0298 102.966 16.392 102.966 15.6364ZM112.686 11.2727V20H111.664L106.908 13.1477H106.823V20H105.766V11.2727H106.789L111.561 18.142H111.646V11.2727H112.686ZM115.858 11.2727V20H114.801V11.2727H115.858ZM114.869 10.3864L115.909 8.40909H117.085L115.756 10.3864H114.869ZM118.335 11.2727L120.926 18.6193H121.028L123.619 11.2727H124.727L121.522 20H120.431L117.227 11.2727H118.335ZM126.086 20V11.2727H131.353V12.2102H127.143V15.1591H131.08V16.0966H127.143V19.0625H131.421V20H126.086ZM133.258 20V11.2727H134.315V19.0625H138.372V20H133.258ZM150.303 11.2727V20H149.281L144.525 13.1477H144.44V20H143.383V11.2727H144.406L149.178 18.142H149.264V11.2727H150.303ZM159.782 15.6364C159.782 16.5568 159.616 17.3523 159.283 18.0227C158.951 18.6932 158.495 19.2102 157.915 19.5739C157.336 19.9375 156.674 20.1193 155.93 20.1193C155.185 20.1193 154.523 19.9375 153.944 19.5739C153.364 19.2102 152.908 18.6932 152.576 18.0227C152.243 17.3523 152.077 16.5568 152.077 15.6364C152.077 14.7159 152.243 13.9205 152.576 13.25C152.908 12.5795 153.364 12.0625 153.944 11.6989C154.523 11.3352 155.185 11.1534 155.93 11.1534C156.674 11.1534 157.336 11.3352 157.915 11.6989C158.495 12.0625 158.951 12.5795 159.283 13.25C159.616 13.9205 159.782 14.7159 159.782 15.6364ZM158.759 15.6364C158.759 14.8807 158.633 14.2429 158.38 13.723C158.13 13.2031 157.79 12.8097 157.361 12.5426C156.935 12.2756 156.458 12.142 155.93 12.142C155.401 12.142 154.922 12.2756 154.493 12.5426C154.067 12.8097 153.728 13.2031 153.475 13.723C153.225 14.2429 153.1 14.8807 153.1 15.6364C153.1 16.392 153.225 17.0298 153.475 17.5497C153.728 18.0696 154.067 18.4631 154.493 18.7301C154.922 18.9972 155.401 19.1307 155.93 19.1307C156.458 19.1307 156.935 18.9972 157.361 18.7301C157.79 18.4631 158.13 18.0696 158.38 17.5497C158.633 17.0298 158.759 16.392 158.759 15.6364Z" fill="#FDFDFD"/>
<path d="M78.4605 35.0895C78.354 34.7443 78.2069 34.4354 78.0194 34.1626C77.8362 33.8857 77.6146 33.6491 77.3547 33.4531C77.099 33.2571 76.805 33.1101 76.4726 33.0121C76.1402 32.9098 75.778 32.8587 75.3859 32.8587C74.6828 32.8587 74.0564 33.0355 73.5067 33.3892C72.9569 33.7429 72.5244 34.2628 72.2091 34.9489C71.898 35.6307 71.7425 36.4616 71.7425 37.4418C71.7425 38.4304 71.898 39.2678 72.2091 39.9538C72.5202 40.6399 72.9527 41.1619 73.5067 41.5199C74.0606 41.8736 74.7041 42.0504 75.4371 42.0504C76.1018 42.0504 76.6771 41.9226 77.1629 41.6669C77.653 41.4112 78.0301 41.049 78.2943 40.5803C78.5585 40.1072 78.6906 39.5533 78.6906 38.9183L79.2275 39.0014H75.6736V37.1477H80.9854V38.7202C80.9854 39.8409 80.7467 40.8104 80.2694 41.6286C79.7922 42.4467 79.1359 43.0774 78.3007 43.5206C77.4655 43.9595 76.5067 44.179 75.4243 44.179C74.2183 44.179 73.1594 43.9084 72.2474 43.3672C71.3398 42.8217 70.6302 42.0483 70.1189 41.0469C69.6118 40.0412 69.3582 38.848 69.3582 37.4673C69.3582 36.4105 69.5074 35.4666 69.8057 34.6357C70.1082 33.8047 70.5301 33.0994 71.0713 32.5199C71.6125 31.9361 72.2474 31.4929 72.9761 31.1903C73.7048 30.8835 74.4974 30.7301 75.354 30.7301C76.0784 30.7301 76.7538 30.8366 77.3802 31.0497C78.0067 31.2585 78.5628 31.5568 79.0486 31.9446C79.5386 32.3324 79.9413 32.7926 80.2567 33.3253C80.572 33.858 80.7787 34.446 80.8767 35.0895H78.4605ZM87.4589 44.1918C86.5001 44.1918 85.6691 43.9808 84.966 43.5589C84.2629 43.1371 83.7174 42.5469 83.3296 41.7884C82.9461 41.0298 82.7544 40.1435 82.7544 39.1293C82.7544 38.1151 82.9461 37.2266 83.3296 36.4638C83.7174 35.701 84.2629 35.1087 84.966 34.6868C85.6691 34.2649 86.5001 34.054 87.4589 34.054C88.4177 34.054 89.2487 34.2649 89.9518 34.6868C90.6549 35.1087 91.1982 35.701 91.5818 36.4638C91.9695 37.2266 92.1634 38.1151 92.1634 39.1293C92.1634 40.1435 91.9695 41.0298 91.5818 41.7884C91.1982 42.5469 90.6549 43.1371 89.9518 43.5589C89.2487 43.9808 88.4177 44.1918 87.4589 44.1918ZM87.4717 42.3381C87.9916 42.3381 88.4262 42.1953 88.7757 41.9098C89.1251 41.62 89.385 41.2322 89.5555 40.7464C89.7302 40.2607 89.8176 39.7195 89.8176 39.1229C89.8176 38.522 89.7302 37.9787 89.5555 37.4929C89.385 37.0028 89.1251 36.6129 88.7757 36.3232C88.4262 36.0334 87.9916 35.8885 87.4717 35.8885C86.939 35.8885 86.4958 36.0334 86.1421 36.3232C85.7927 36.6129 85.5306 37.0028 85.3559 37.4929C85.1855 37.9787 85.1002 38.522 85.1002 39.1229C85.1002 39.7195 85.1855 40.2607 85.3559 40.7464C85.5306 41.2322 85.7927 41.62 86.1421 41.9098C86.4958 42.1953 86.939 42.3381 87.4717 42.3381ZM98.4101 44.1918C97.4513 44.1918 96.6203 43.9808 95.9172 43.5589C95.214 43.1371 94.6686 42.5469 94.2808 41.7884C93.8973 41.0298 93.7055 40.1435 93.7055 39.1293C93.7055 38.1151 93.8973 37.2266 94.2808 36.4638C94.6686 35.701 95.214 35.1087 95.9172 34.6868C96.6203 34.2649 97.4513 34.054 98.4101 34.054C99.3689 34.054 100.2 34.2649 100.903 34.6868C101.606 35.1087 102.149 35.701 102.533 36.4638C102.921 37.2266 103.115 38.1151 103.115 39.1293C103.115 40.1435 102.921 41.0298 102.533 41.7884C102.149 42.5469 101.606 43.1371 100.903 43.5589C100.2 43.9808 99.3689 44.1918 98.4101 44.1918ZM98.4229 42.3381C98.9427 42.3381 99.3774 42.1953 99.7268 41.9098C100.076 41.62 100.336 41.2322 100.507 40.7464C100.681 40.2607 100.769 39.7195 100.769 39.1229C100.769 38.522 100.681 37.9787 100.507 37.4929C100.336 37.0028 100.076 36.6129 99.7268 36.3232C99.3774 36.0334 98.9427 35.8885 98.4229 35.8885C97.8902 35.8885 97.447 36.0334 97.0933 36.3232C96.7439 36.6129 96.4818 37.0028 96.3071 37.4929C96.1366 37.9787 96.0514 38.522 96.0514 39.1229C96.0514 39.7195 96.1366 40.2607 96.3071 40.7464C96.4818 41.2322 96.7439 41.62 97.0933 41.9098C97.447 42.1953 97.8902 42.3381 98.4229 42.3381ZM109.348 47.8864C108.517 47.8864 107.804 47.7734 107.207 47.5476C106.611 47.326 106.131 47.0277 105.769 46.6527C105.407 46.2777 105.155 45.8622 105.015 45.4062L107.098 44.9013C107.192 45.093 107.329 45.2827 107.508 45.4702C107.687 45.6619 107.927 45.8196 108.23 45.9432C108.537 46.071 108.922 46.1349 109.387 46.1349C110.043 46.1349 110.586 45.9751 111.017 45.6555C111.447 45.3402 111.662 44.8203 111.662 44.0959V42.2358H111.547C111.428 42.4744 111.253 42.7195 111.023 42.9709C110.797 43.2223 110.497 43.4332 110.122 43.6037C109.751 43.7741 109.285 43.8594 108.722 43.8594C107.968 43.8594 107.284 43.6825 106.67 43.3288C106.061 42.9709 105.575 42.4382 105.213 41.7308C104.855 41.0192 104.676 40.1286 104.676 39.0589C104.676 37.9808 104.855 37.071 105.213 36.3295C105.575 35.5838 106.063 35.0192 106.677 34.6357C107.29 34.2479 107.974 34.054 108.728 34.054C109.304 34.054 109.777 34.152 110.147 34.348C110.522 34.5398 110.821 34.772 111.042 35.0447C111.264 35.3132 111.432 35.5668 111.547 35.8054H111.675V34.1818H113.957V44.1598C113.957 44.9993 113.757 45.6939 113.356 46.2436C112.956 46.7933 112.408 47.2045 111.714 47.4773C111.019 47.75 110.231 47.8864 109.348 47.8864ZM109.368 42.044C109.858 42.044 110.275 41.9247 110.62 41.6861C110.966 41.4474 111.228 41.1044 111.407 40.657C111.586 40.2095 111.675 39.6726 111.675 39.0462C111.675 38.4283 111.586 37.8871 111.407 37.4226C111.232 36.9581 110.972 36.598 110.627 36.3423C110.286 36.0824 109.866 35.9524 109.368 35.9524C108.852 35.9524 108.422 36.0866 108.076 36.3551C107.731 36.6236 107.471 36.9922 107.297 37.4609C107.122 37.9254 107.035 38.4538 107.035 39.0462C107.035 39.647 107.122 40.1733 107.297 40.625C107.476 41.0724 107.738 41.4219 108.083 41.6733C108.432 41.9205 108.861 42.044 109.368 42.044ZM118.642 30.9091V44H116.329V30.9091H118.642ZM125.369 44.1918C124.384 44.1918 123.534 43.9872 122.818 43.5781C122.106 43.1648 121.559 42.581 121.175 41.8267C120.792 41.0682 120.6 40.1754 120.6 39.1484C120.6 38.1385 120.792 37.2521 121.175 36.4893C121.563 35.7223 122.104 35.1257 122.799 34.6996C123.494 34.2692 124.31 34.054 125.247 34.054C125.852 34.054 126.423 34.152 126.96 34.348C127.501 34.5398 127.979 34.8381 128.392 35.2429C128.81 35.6477 129.138 36.1634 129.376 36.7898C129.615 37.4119 129.734 38.1534 129.734 39.0142V39.7237H121.687V38.1641H127.516C127.512 37.7209 127.416 37.3267 127.229 36.9815C127.041 36.6321 126.779 36.3572 126.442 36.157C126.11 35.9567 125.722 35.8565 125.279 35.8565C124.806 35.8565 124.391 35.9716 124.033 36.2017C123.675 36.4276 123.396 36.7259 123.195 37.0966C122.999 37.4631 122.899 37.8658 122.895 38.3047V39.6662C122.895 40.2372 122.999 40.7273 123.208 41.1364C123.417 41.5412 123.709 41.8523 124.084 42.0696C124.459 42.2827 124.898 42.3892 125.4 42.3892C125.737 42.3892 126.042 42.3423 126.315 42.2486C126.587 42.1506 126.824 42.0078 127.024 41.8203C127.224 41.6328 127.376 41.4006 127.478 41.1236L129.638 41.3665C129.502 41.9375 129.242 42.4361 128.859 42.8622C128.479 43.2841 127.994 43.6122 127.401 43.8466C126.809 44.0767 126.131 44.1918 125.369 44.1918ZM136.259 44V30.9091H141.168C142.174 30.9091 143.017 31.0966 143.699 31.4716C144.385 31.8466 144.903 32.3622 145.253 33.0185C145.606 33.6705 145.783 34.4119 145.783 35.2429C145.783 36.0824 145.606 36.8281 145.253 37.4801C144.899 38.1321 144.377 38.6456 143.687 39.0206C142.996 39.3913 142.146 39.5767 141.136 39.5767H137.883V37.6271H140.816C141.405 37.6271 141.886 37.5249 142.261 37.3203C142.636 37.1158 142.913 36.8345 143.092 36.4766C143.275 36.1186 143.367 35.7074 143.367 35.2429C143.367 34.7784 143.275 34.3693 143.092 34.0156C142.913 33.6619 142.634 33.3871 142.255 33.1911C141.88 32.9908 141.396 32.8906 140.804 32.8906H138.63V44H136.259ZM150.055 30.9091V44H147.741V30.9091H150.055ZM155.259 44.1982C154.637 44.1982 154.077 44.0874 153.578 43.8658C153.084 43.6399 152.692 43.3075 152.402 42.8686C152.117 42.4297 151.974 41.8885 151.974 41.245C151.974 40.6911 152.076 40.233 152.281 39.8707C152.485 39.5085 152.764 39.2188 153.118 39.0014C153.472 38.7841 153.87 38.62 154.313 38.5092C154.761 38.3942 155.223 38.3111 155.7 38.2599C156.276 38.2003 156.742 38.147 157.1 38.1001C157.458 38.049 157.718 37.9723 157.88 37.87C158.046 37.7635 158.129 37.5994 158.129 37.3778V37.3395C158.129 36.858 157.987 36.4851 157.701 36.2209C157.416 35.9567 157.004 35.8246 156.467 35.8246C155.901 35.8246 155.451 35.9482 155.119 36.1953C154.791 36.4425 154.569 36.7344 154.454 37.071L152.293 36.7642C152.464 36.1676 152.745 35.669 153.137 35.2685C153.529 34.8636 154.009 34.5611 154.575 34.3608C155.142 34.1562 155.769 34.054 156.455 34.054C156.928 34.054 157.399 34.1094 157.867 34.2202C158.336 34.331 158.764 34.5142 159.152 34.7699C159.54 35.0213 159.851 35.3643 160.085 35.799C160.324 36.2337 160.443 36.777 160.443 37.429V44H158.219V42.6513H158.142C158.002 42.924 157.803 43.1797 157.548 43.4183C157.296 43.6527 156.979 43.8423 156.595 43.9872C156.216 44.1278 155.771 44.1982 155.259 44.1982ZM155.86 42.4979C156.325 42.4979 156.727 42.4062 157.068 42.223C157.409 42.0355 157.671 41.7884 157.854 41.4815C158.042 41.1747 158.136 40.8402 158.136 40.478V39.321C158.063 39.3807 157.94 39.4361 157.765 39.4872C157.595 39.5384 157.403 39.5831 157.19 39.6214C156.977 39.6598 156.766 39.6939 156.557 39.7237C156.348 39.7536 156.167 39.7791 156.014 39.8004C155.668 39.8473 155.359 39.924 155.087 40.0305C154.814 40.1371 154.599 40.2862 154.441 40.478C154.283 40.6655 154.205 40.9084 154.205 41.2067C154.205 41.6328 154.36 41.9545 154.671 42.1719C154.982 42.3892 155.379 42.4979 155.86 42.4979ZM163.857 47.6818C163.541 47.6818 163.249 47.6563 162.981 47.6051C162.717 47.5582 162.506 47.5028 162.348 47.4389L162.885 45.6364C163.222 45.7344 163.522 45.7813 163.786 45.777C164.051 45.7727 164.283 45.6896 164.483 45.5277C164.688 45.37 164.86 45.1058 165.001 44.7351L165.199 44.2045L161.639 34.1818H164.093L166.356 41.5966H166.458L168.727 34.1818H171.188L167.257 45.1889C167.074 45.7088 166.831 46.1541 166.528 46.5249C166.226 46.8999 165.855 47.1854 165.416 47.3814C164.982 47.5817 164.462 47.6818 163.857 47.6818Z" fill="#FDFDFD"/>
<defs>
<linearGradient id="paint0_linear_1_296" x1="43.6365" y1="23.733" x2="33.9549" y2="33.4943" gradientUnits="userSpaceOnUse">
<stop stop-color="#00C3FF"/>
<stop offset="1" stop-color="#1BE2FA"/>
</linearGradient>
<linearGradient id="paint1_linear_1_296" x1="48.8289" y1="29.2949" x2="61.7058" y2="29.2949" gradientUnits="userSpaceOnUse">
<stop stop-color="#FFCE00"/>
<stop offset="1" stop-color="#FFEA00"/>
</linearGradient>
<linearGradient id="paint2_linear_1_296" x1="34.2904" y1="45.3628" x2="51.4193" y2="31.6302" gradientUnits="userSpaceOnUse">
<stop stop-color="#DE2453"/>
<stop offset="1" stop-color="#FE3944"/>
</linearGradient>
<linearGradient id="paint3_linear_1_296" x1="35.1211" y1="13.639" x2="51.4222" y2="26.9535" gradientUnits="userSpaceOnUse">
<stop stop-color="#11D574"/>
<stop offset="1" stop-color="#01F176"/>
</linearGradient>
</defs>
</svg>
