<svg width="179" height="59" viewBox="0 0 179 59" fill="none" xmlns="http://www.w3.org/2000/svg">
<path d="M0 8C0 3.58172 3.58172 0 8 0H171C175.418 0 179 3.58172 179 8V51C179 55.4183 175.418 59 171 59H8C3.58173 59 0 55.4183 0 51V8Z" fill="#292929"/>
<path d="M54.5111 25.2093C54.3821 25.2845 51.3132 26.8717 51.3132 30.3908C51.4578 34.404 55.1861 35.8115 55.25 35.8115C55.1861 35.8867 54.6871 37.7287 53.2093 39.6597C52.0364 41.323 50.7346 43 48.7578 43C46.8775 43 46.2025 41.8914 44.0328 41.8914C41.7028 41.8914 41.0435 43 39.2596 43C37.2828 43 35.8846 41.2331 34.6478 39.5854C33.041 37.4289 31.6753 34.0446 31.627 30.7951C31.5945 29.0732 31.9488 27.3806 32.8481 25.9428C34.1174 23.9357 36.3835 22.5732 38.8581 22.5283C40.7542 22.4687 42.4417 23.7414 43.5989 23.7414C44.7078 23.7414 46.781 22.5283 49.1268 22.5283C50.1393 22.5293 52.8393 22.8135 54.5111 25.2093ZM43.4385 22.1845C43.101 20.612 44.0328 19.0395 44.9007 18.0364C46.0096 16.8234 47.761 16 49.2714 16C49.3678 17.5725 48.7568 19.1147 47.6646 20.2379C46.6846 21.451 44.9971 22.3642 43.4385 22.1845Z" fill="#FDFDFD"/>
<path d="M69.5099 20V11.2727H72.5611C73.169 11.2727 73.6705 11.3778 74.0653 11.5881C74.4602 11.7955 74.7543 12.0753 74.9474 12.4276C75.1406 12.777 75.2372 13.1648 75.2372 13.5909C75.2372 13.9659 75.1705 14.2756 75.0369 14.5199C74.9063 14.7642 74.733 14.9574 74.517 15.0994C74.304 15.2415 74.0724 15.3466 73.8224 15.4148V15.5C74.0895 15.517 74.358 15.6108 74.6278 15.7812C74.8977 15.9517 75.1236 16.196 75.3054 16.5142C75.4872 16.8324 75.5781 17.2216 75.5781 17.6818C75.5781 18.1193 75.4787 18.5128 75.2798 18.8622C75.081 19.2116 74.767 19.4886 74.3381 19.6932C73.9091 19.8977 73.3509 20 72.6634 20H69.5099ZM70.5668 19.0625H72.6634C73.3537 19.0625 73.8438 18.929 74.1335 18.6619C74.4261 18.392 74.5724 18.0653 74.5724 17.6818C74.5724 17.3864 74.4972 17.1136 74.3466 16.8636C74.196 16.6108 73.9815 16.4091 73.7031 16.2585C73.4247 16.1051 73.0952 16.0284 72.7145 16.0284H70.5668V19.0625ZM70.5668 15.108H72.527C72.8452 15.108 73.1321 15.0455 73.3878 14.9205C73.6463 14.7955 73.8509 14.6193 74.0014 14.392C74.1548 14.1648 74.2315 13.8977 74.2315 13.5909C74.2315 13.2074 74.098 12.8821 73.831 12.6151C73.5639 12.3452 73.1406 12.2102 72.5611 12.2102H70.5668V15.108ZM77.6726 20H76.5646L79.7692 11.2727H80.8601L84.0646 20H82.9567L80.3487 12.6534H80.2805L77.6726 20ZM78.0817 16.5909H82.5476V17.5284H78.0817V16.5909ZM86.4808 11.2727V20H85.424V11.2727H86.4808ZM89.1112 11.2727L91.3612 14.9034H91.4293L93.6793 11.2727H94.9237L92.1793 15.6364L94.9237 20H93.6793L91.4293 16.4375H91.3612L89.1112 20H87.8668L90.6793 15.6364L87.8668 11.2727H89.1112ZM96.657 20H95.549L98.7536 11.2727H99.8445L103.049 20H101.941L99.3331 12.6534H99.2649L96.657 20ZM97.0661 16.5909H101.532V17.5284H97.0661V16.5909ZM104.408 20V11.2727H107.357C108.039 11.2727 108.599 11.3892 109.036 11.6222C109.474 11.8523 109.798 12.169 110.008 12.5724C110.218 12.9759 110.323 13.4347 110.323 13.9489C110.323 14.4631 110.218 14.919 110.008 15.3168C109.798 15.7145 109.475 16.027 109.04 16.2543C108.606 16.4787 108.05 16.5909 107.374 16.5909H104.988V15.6364H107.34C107.806 15.6364 108.181 15.5682 108.465 15.4318C108.752 15.2955 108.96 15.1023 109.087 14.8523C109.218 14.5994 109.283 14.2983 109.283 13.9489C109.283 13.5994 109.218 13.294 109.087 13.0327C108.957 12.7713 108.748 12.5696 108.461 12.4276C108.174 12.2827 107.795 12.2102 107.323 12.2102H105.465V20H104.408ZM108.516 16.0795L110.664 20H109.437L107.323 16.0795H108.516ZM122.38 11.2727V20H121.357L116.601 13.1477H116.516V20H115.459V11.2727H116.482L121.255 18.142H121.34V11.2727H122.38ZM124.852 20H123.744L126.949 11.2727H128.04L131.244 20H130.136L127.528 12.6534H127.46L124.852 20ZM125.261 16.5909H129.727V17.5284H125.261V16.5909Z" fill="#FDFDFD"/>
<path d="M71.0895 44H68.5582L73.1669 30.9091H76.0945L80.7095 44H78.1783L74.6818 33.5938H74.5795L71.0895 44ZM71.1726 38.8672H78.076V40.772H71.1726V38.8672ZM82.3315 47.6818V34.1818H84.6071V35.8054H84.7413C84.8606 35.5668 85.0289 35.3132 85.2463 35.0447C85.4636 34.772 85.7576 34.5398 86.1284 34.348C86.4991 34.152 86.9721 34.054 87.5474 34.054C88.3059 34.054 88.9899 34.2479 89.5993 34.6357C90.2129 35.0192 90.6987 35.5881 91.0566 36.3423C91.4189 37.0923 91.6 38.0128 91.6 39.1037C91.6 40.1818 91.4231 41.098 91.0694 41.8523C90.7157 42.6065 90.2342 43.1818 89.6248 43.5781C89.0154 43.9744 88.3251 44.1726 87.5538 44.1726C86.9913 44.1726 86.5247 44.0788 86.1539 43.8913C85.7832 43.7038 85.4849 43.478 85.2591 43.2138C85.0375 42.9453 84.8649 42.6918 84.7413 42.4531H84.6454V47.6818H82.3315ZM84.6007 39.0909C84.6007 39.7259 84.6902 40.282 84.8691 40.7592C85.0524 41.2365 85.3145 41.6094 85.6554 41.8778C86.0005 42.142 86.4181 42.2741 86.9082 42.2741C87.4196 42.2741 87.8478 42.1378 88.193 41.8651C88.5382 41.5881 88.7981 41.2109 88.9728 40.7337C89.1518 40.2521 89.2413 39.7045 89.2413 39.0909C89.2413 38.4815 89.1539 37.9403 88.9792 37.4673C88.8045 36.9943 88.5446 36.6236 88.1994 36.3551C87.8542 36.0866 87.4238 35.9524 86.9082 35.9524C86.4139 35.9524 85.9941 36.0824 85.649 36.3423C85.3038 36.6023 85.0417 36.9666 84.8627 37.4354C84.688 37.9041 84.6007 38.456 84.6007 39.0909ZM93.5815 47.6818V34.1818H95.8571V35.8054H95.9913C96.1106 35.5668 96.2789 35.3132 96.4963 35.0447C96.7136 34.772 97.0076 34.5398 97.3784 34.348C97.7491 34.152 98.2221 34.054 98.7974 34.054C99.5559 34.054 100.24 34.2479 100.849 34.6357C101.463 35.0192 101.949 35.5881 102.307 36.3423C102.669 37.0923 102.85 38.0128 102.85 39.1037C102.85 40.1818 102.673 41.098 102.319 41.8523C101.966 42.6065 101.484 43.1818 100.875 43.5781C100.265 43.9744 99.5751 44.1726 98.8038 44.1726C98.2413 44.1726 97.7747 44.0788 97.4039 43.8913C97.0332 43.7038 96.7349 43.478 96.5091 43.2138C96.2875 42.9453 96.1149 42.6918 95.9913 42.4531H95.8954V47.6818H93.5815ZM95.8507 39.0909C95.8507 39.7259 95.9402 40.282 96.1191 40.7592C96.3024 41.2365 96.5645 41.6094 96.9054 41.8778C97.2505 42.142 97.6681 42.2741 98.1582 42.2741C98.6696 42.2741 99.0978 42.1378 99.443 41.8651C99.7882 41.5881 100.048 41.2109 100.223 40.7337C100.402 40.2521 100.491 39.7045 100.491 39.0909C100.491 38.4815 100.404 37.9403 100.229 37.4673C100.055 36.9943 99.7946 36.6236 99.4494 36.3551C99.1042 36.0866 98.6738 35.9524 98.1582 35.9524C97.6639 35.9524 97.2441 36.0824 96.899 36.3423C96.5538 36.6023 96.2917 36.9666 96.1127 37.4354C95.938 37.9041 95.8507 38.456 95.8507 39.0909ZM116.513 34.5078C116.453 33.9496 116.202 33.5149 115.759 33.2038C115.32 32.8928 114.749 32.7372 114.046 32.7372C113.551 32.7372 113.127 32.8118 112.774 32.9609C112.42 33.1101 112.149 33.3125 111.962 33.5682C111.774 33.8239 111.678 34.1158 111.674 34.4439C111.674 34.7166 111.736 34.9531 111.86 35.1534C111.987 35.3537 112.16 35.5241 112.377 35.6648C112.595 35.8011 112.835 35.9162 113.1 36.0099C113.364 36.1037 113.63 36.1825 113.899 36.2464L115.126 36.5533C115.62 36.6683 116.095 36.8239 116.551 37.0199C117.012 37.2159 117.423 37.4631 117.785 37.7614C118.151 38.0597 118.441 38.4197 118.654 38.8416C118.867 39.2635 118.974 39.7578 118.974 40.3246C118.974 41.0916 118.778 41.767 118.386 42.3509C117.994 42.9304 117.427 43.3842 116.686 43.7124C115.948 44.0362 115.056 44.1982 114.007 44.1982C112.989 44.1982 112.105 44.0405 111.355 43.7251C110.609 43.4098 110.025 42.9496 109.603 42.3445C109.186 41.7393 108.96 41.0021 108.926 40.1328H111.259C111.293 40.5888 111.433 40.968 111.681 41.2706C111.928 41.5732 112.249 41.799 112.646 41.9482C113.046 42.0973 113.494 42.1719 113.988 42.1719C114.504 42.1719 114.955 42.0952 115.343 41.9418C115.735 41.7841 116.042 41.5668 116.264 41.2898C116.485 41.0085 116.598 40.6804 116.602 40.3054C116.598 39.9645 116.498 39.6832 116.302 39.4616C116.106 39.2358 115.831 39.0483 115.477 38.8991C115.128 38.7457 114.719 38.6094 114.25 38.4901L112.761 38.1065C111.683 37.8295 110.83 37.4098 110.204 36.8473C109.582 36.2805 109.271 35.5284 109.271 34.5909C109.271 33.8196 109.48 33.1442 109.897 32.5646C110.319 31.9851 110.892 31.5355 111.617 31.2159C112.341 30.892 113.161 30.7301 114.078 30.7301C115.007 30.7301 115.82 30.892 116.519 31.2159C117.222 31.5355 117.774 31.9808 118.175 32.5518C118.575 33.1186 118.782 33.7706 118.795 34.5078H116.513ZM125.888 34.1818V35.9716H120.244V34.1818H125.888ZM121.638 31.8295H123.952V41.0469C123.952 41.358 123.999 41.5966 124.092 41.7628C124.19 41.9247 124.318 42.0355 124.476 42.0952C124.634 42.1548 124.808 42.1847 125 42.1847C125.145 42.1847 125.277 42.174 125.396 42.1527C125.52 42.1314 125.614 42.1122 125.678 42.0952L126.067 43.9041C125.944 43.9467 125.767 43.9936 125.537 44.0447C125.311 44.0959 125.034 44.1257 124.706 44.1342C124.126 44.1513 123.604 44.0639 123.14 43.8722C122.675 43.6761 122.307 43.3736 122.034 42.9645C121.766 42.5554 121.634 42.044 121.638 41.4304V31.8295ZM132.001 44.1918C131.042 44.1918 130.211 43.9808 129.508 43.5589C128.805 43.1371 128.259 42.5469 127.872 41.7884C127.488 41.0298 127.296 40.1435 127.296 39.1293C127.296 38.1151 127.488 37.2266 127.872 36.4638C128.259 35.701 128.805 35.1087 129.508 34.6868C130.211 34.2649 131.042 34.054 132.001 34.054C132.96 34.054 133.791 34.2649 134.494 34.6868C135.197 35.1087 135.74 35.701 136.124 36.4638C136.512 37.2266 136.705 38.1151 136.705 39.1293C136.705 40.1435 136.512 41.0298 136.124 41.7884C135.74 42.5469 135.197 43.1371 134.494 43.5589C133.791 43.9808 132.96 44.1918 132.001 44.1918ZM132.014 42.3381C132.534 42.3381 132.968 42.1953 133.318 41.9098C133.667 41.62 133.927 41.2322 134.097 40.7464C134.272 40.2607 134.36 39.7195 134.36 39.1229C134.36 38.522 134.272 37.9787 134.097 37.4929C133.927 37.0028 133.667 36.6129 133.318 36.3232C132.968 36.0334 132.534 35.8885 132.014 35.8885C131.481 35.8885 131.038 36.0334 130.684 36.3232C130.335 36.6129 130.073 37.0028 129.898 37.4929C129.727 37.9787 129.642 38.522 129.642 39.1229C129.642 39.7195 129.727 40.2607 129.898 40.7464C130.073 41.2322 130.335 41.62 130.684 41.9098C131.038 42.1953 131.481 42.3381 132.014 42.3381ZM138.669 44V34.1818H140.913V35.8182H141.015C141.194 35.2514 141.501 34.8146 141.936 34.5078C142.375 34.1967 142.875 34.0412 143.438 34.0412C143.566 34.0412 143.708 34.0476 143.866 34.0604C144.028 34.0689 144.162 34.0838 144.269 34.1051V36.2337C144.171 36.1996 144.015 36.1697 143.802 36.1442C143.593 36.1143 143.391 36.0994 143.195 36.0994C142.773 36.0994 142.394 36.1911 142.057 36.3743C141.725 36.5533 141.463 36.8026 141.271 37.1222C141.079 37.4418 140.983 37.8104 140.983 38.228V44H138.669ZM149.748 44.1918C148.764 44.1918 147.914 43.9872 147.198 43.5781C146.486 43.1648 145.939 42.581 145.555 41.8267C145.172 41.0682 144.98 40.1754 144.98 39.1484C144.98 38.1385 145.172 37.2521 145.555 36.4893C145.943 35.7223 146.484 35.1257 147.179 34.6996C147.873 34.2692 148.689 34.054 149.627 34.054C150.232 34.054 150.803 34.152 151.34 34.348C151.881 34.5398 152.358 34.8381 152.772 35.2429C153.189 35.6477 153.518 36.1634 153.756 36.7898C153.995 37.4119 154.114 38.1534 154.114 39.0142V39.7237H146.067V38.1641H151.896C151.892 37.7209 151.796 37.3267 151.608 36.9815C151.421 36.6321 151.159 36.3572 150.822 36.157C150.49 35.9567 150.102 35.8565 149.659 35.8565C149.186 35.8565 148.77 35.9716 148.412 36.2017C148.055 36.4276 147.775 36.7259 147.575 37.0966C147.379 37.4631 147.279 37.8658 147.275 38.3047V39.6662C147.275 40.2372 147.379 40.7273 147.588 41.1364C147.797 41.5412 148.089 41.8523 148.464 42.0696C148.839 42.2827 149.278 42.3892 149.78 42.3892C150.117 42.3892 150.422 42.3423 150.694 42.2486C150.967 42.1506 151.204 42.0078 151.404 41.8203C151.604 41.6328 151.756 41.4006 151.858 41.1236L154.018 41.3665C153.882 41.9375 153.622 42.4361 153.238 42.8622C152.859 43.2841 152.373 43.6122 151.781 43.8466C151.189 44.0767 150.511 44.1918 149.748 44.1918Z" fill="#FDFDFD"/>
</svg>
