<svg version="1.1" id="Layer_1" xmlns="http://www.w3.org/2000/svg" xmlns:xlink="http://www.w3.org/1999/xlink" x="0px" y="0px"
	 width="100%" viewBox="0 0 96 96" enable-background="new 0 0 96 96" xml:space="preserve">
<path fill="#1B60A5" opacity="1.000000" stroke="none" 
	d="
M82.000000,97.000000 
	C60.645771,97.000000 39.291542,97.000000 17.688869,96.683167 
	C11.782082,92.007172 10.782901,86.099213 10.898067,79.309334 
	C11.202754,61.345848 10.978569,43.373726 11.011271,25.405127 
	C11.026791,16.876980 9.305038,7.866417 17.272903,1.393299 
	C17.282265,1.385695 17.095272,1.136398 17.000000,1.000000 
	C32.687561,1.000000 48.375122,1.000000 64.282661,1.298460 
	C71.136261,8.698087 77.965561,15.631399 84.286766,23.000551 
	C86.236626,25.273661 87.763512,28.711306 87.836761,31.656704 
	C88.196053,46.104774 87.930969,60.567120 88.027779,75.023476 
	C88.079773,82.788696 89.010101,90.729805 81.644020,96.236946 
	C81.598160,96.271248 81.874252,96.736168 82.000000,97.000000 
M59.001030,15.476299 
	C59.001030,12.401255 59.001030,9.326210 59.001030,6.014618 
	C46.820763,6.014618 35.507416,5.814549 24.208200,6.126490 
	C20.411787,6.231299 17.060051,8.313620 17.044607,12.821165 
	C16.963074,36.620483 16.965488,60.420364 17.044275,84.219704 
	C17.059233,88.737930 20.007135,91.902084 24.400635,91.936668 
	C40.876205,92.066338 57.358322,92.211830 73.827187,91.854202 
	C79.102501,91.739655 82.268524,89.031387 82.125778,83.091072 
	C81.750053,67.455597 82.006271,51.805115 81.986053,36.160645 
	C81.983994,34.561146 81.814621,32.961857 81.716003,31.242355 
	C80.122215,31.144203 78.980988,31.027605 77.838463,31.013060 
	C75.342392,30.981277 72.845573,31.014292 70.349213,30.997894 
	C61.807079,30.941788 59.000149,27.334265 59.001030,15.476299 
M64.000351,15.827013 
	C64.095612,24.533470 66.701843,26.254089 75.726349,24.668938 
	C72.126007,20.960690 67.997864,16.708817 64.111359,12.705832 
	C64.094597,13.059388 64.047745,14.047980 64.000351,15.827013 
z"/>
<path fill="#000000" opacity="1.000000" stroke="none" 
	d="
M82.472664,97.000000 
	C81.874252,96.736168 81.598160,96.271248 81.644020,96.236946 
	C89.010101,90.729805 88.079773,82.788696 88.027779,75.023476 
	C87.930969,60.567120 88.196053,46.104774 87.836761,31.656704 
	C87.763512,28.711306 86.236626,25.273661 84.286766,23.000551 
	C77.965561,15.631399 71.136261,8.698087 64.751320,1.298460 
	C75.633331,1.000000 86.266663,1.000000 96.949997,1.000000 
	C96.949997,33.000000 96.949997,65.000000 96.949997,97.000000 
	C92.249496,97.000000 87.597412,97.000000 82.472664,97.000000 
z"/>
<path fill="#000000" opacity="1.000000" stroke="none" 
	d="
M16.528801,1.000000 
	C17.095272,1.136398 17.282265,1.385695 17.272903,1.393299 
	C9.305038,7.866417 11.026791,16.876980 11.011271,25.405127 
	C10.978569,43.373726 11.202754,61.345848 10.898067,79.309334 
	C10.782901,86.099213 11.782082,92.007172 17.220211,96.683167 
	C11.685171,97.000000 6.370343,97.000000 1.055173,96.999985 
	C1.054832,64.999962 1.054832,32.999950 1.054832,1.000000 
	C6.092311,1.000000 11.074958,1.000000 16.528801,1.000000 
z"/>
<path fill="#000000" opacity="1.000000" stroke="none" 
	d="
M59.001022,15.953531 
	C59.000149,27.334265 61.807079,30.941788 70.349213,30.997894 
	C72.845573,31.014292 75.342392,30.981277 77.838463,31.013060 
	C78.980988,31.027605 80.122215,31.144203 81.716003,31.242355 
	C81.814621,32.961857 81.983994,34.561146 81.986053,36.160645 
	C82.006271,51.805115 81.750053,67.455597 82.125778,83.091072 
	C82.268524,89.031387 79.102501,91.739655 73.827187,91.854202 
	C57.358322,92.211830 40.876205,92.066338 24.400635,91.936668 
	C20.007135,91.902084 17.059233,88.737930 17.044275,84.219704 
	C16.965488,60.420364 16.963074,36.620483 17.044607,12.821165 
	C17.060051,8.313620 20.411787,6.231299 24.208200,6.126490 
	C35.507416,5.814549 46.820763,6.014618 59.001030,6.014618 
	C59.001030,9.326210 59.001030,12.401255 59.001022,15.953531 
M46.999622,52.616859 
	C46.999622,57.900944 46.999622,63.185028 46.999622,68.645935 
	C48.827538,68.645935 50.189053,68.645935 52.158340,68.645935 
	C52.158340,60.180584 52.158340,52.019077 52.158340,43.857571 
	C52.603897,43.614994 53.049450,43.372417 53.495007,43.129841 
	C56.520607,46.561790 59.546204,49.993740 62.571804,53.425690 
	C63.233871,53.280327 63.895939,53.134964 64.558006,52.989601 
	C64.693504,51.159061 65.662346,48.657921 64.821518,47.613033 
	C60.999622,42.863583 56.716282,38.478264 52.498882,34.057400 
	C50.486610,31.948044 48.434959,31.681005 46.259056,34.185699 
	C42.605350,38.391487 38.896862,42.570637 34.934914,46.480824 
	C31.958700,49.418156 32.912540,51.185703 37.028866,53.533718 
	C39.847279,50.231380 42.808712,46.761463 45.770149,43.291546 
	C46.179974,43.503387 46.589798,43.715229 46.999622,43.927074 
	C46.999622,46.506927 46.999622,49.086781 46.999622,52.616859 
M64.359108,81.000175 
	C66.469055,81.000175 68.579002,81.000175 70.442406,81.000175 
	C71.733406,76.989426 70.472649,75.851273 67.070335,75.950317 
	C60.748222,76.134346 54.416889,76.001419 48.089397,76.001038 
	C41.478710,76.000641 34.868019,76.000946 28.509842,76.000946 
	C27.299580,79.958031 28.488379,81.107933 31.920206,81.056007 
	C42.408115,80.897354 52.899971,80.999496 64.359108,81.000175 
z"/>
<path fill="#000000" opacity="1.000000" stroke="none" 
	d="
M64.000618,15.431793 
	C64.047745,14.047980 64.094597,13.059388 64.111359,12.705832 
	C67.997864,16.708817 72.126007,20.960690 75.726349,24.668938 
	C66.701843,26.254089 64.095612,24.533470 64.000618,15.431793 
z"/>
<path fill="#1B60A5" opacity="1.000000" stroke="none" 
	d="
M46.999622,52.141747 
	C46.999622,49.086781 46.999622,46.506927 46.999622,43.927074 
	C46.589798,43.715229 46.179974,43.503387 45.770149,43.291546 
	C42.808712,46.761463 39.847279,50.231380 37.028866,53.533718 
	C32.912540,51.185703 31.958700,49.418156 34.934914,46.480824 
	C38.896862,42.570637 42.605350,38.391487 46.259056,34.185699 
	C48.434959,31.681005 50.486610,31.948044 52.498882,34.057400 
	C56.716282,38.478264 60.999622,42.863583 64.821518,47.613033 
	C65.662346,48.657921 64.693504,51.159061 64.558006,52.989601 
	C63.895939,53.134964 63.233871,53.280327 62.571804,53.425690 
	C59.546204,49.993740 56.520607,46.561790 53.495007,43.129841 
	C53.049450,43.372417 52.603897,43.614994 52.158340,43.857571 
	C52.158340,52.019077 52.158340,60.180584 52.158340,68.645935 
	C50.189053,68.645935 48.827538,68.645935 46.999622,68.645935 
	C46.999622,63.185028 46.999622,57.900944 46.999622,52.141747 
z"/>
<path fill="#1B60A5" opacity="1.000000" stroke="none" 
	d="
M63.874699,81.000175 
	C52.899971,80.999496 42.408115,80.897354 31.920206,81.056007 
	C28.488379,81.107933 27.299580,79.958031 28.509842,76.000946 
	C34.868019,76.000946 41.478710,76.000641 48.089397,76.001038 
	C54.416889,76.001419 60.748222,76.134346 67.070335,75.950317 
	C70.472649,75.851273 71.733406,76.989426 70.442406,81.000175 
	C68.579002,81.000175 66.469055,81.000175 63.874699,81.000175 
z"/>
</svg>