<svg width="28" height="28" viewBox="0 0 28 28" fill="none" xmlns="http://www.w3.org/2000/svg">
<g id="description">
<path id="Vector" d="M9.30449 20.7083H18.6962V18.9583H9.30449V20.7083ZM9.30449 15.7499H18.6962V13.9999H9.30449V15.7499ZM6.41699 25.6666C5.95033 25.6666 5.54199 25.4916 5.19199 25.1416C4.84199 24.7916 4.66699 24.3833 4.66699 23.9166V4.08325C4.66699 3.61659 4.84199 3.20825 5.19199 2.85825C5.54199 2.50825 5.95033 2.33325 6.41699 2.33325H16.9462L23.3337 8.72075V23.9166C23.3337 24.3833 23.1587 24.7916 22.8087 25.1416C22.4587 25.4916 22.0503 25.6666 21.5837 25.6666H6.41699ZM16.0712 9.50825V4.08325H6.41699V23.9166H21.5837V9.50825H16.0712Z" fill="black" fill-opacity="0.38"/>
</g>
</svg>
